<svg xmlns="http://www.w3.org/2000/svg" viewBox="0 0 512 512">
  <defs>
    <linearGradient id="icon-bg" x1="64" y1="48" x2="448" y2="464" gradientUnits="userSpaceOnUse">
      <stop offset="0" stop-color="#121827"/>
      <stop offset="1" stop-color="#0A0F1A"/>
    </linearGradient>
    <linearGradient id="icon-ring" x1="123.2" y1="113.6" x2="388.8" y2="390.4" gradientUnits="userSpaceOnUse">
      <stop offset="0" stop-color="#38BDF8"/>
      <stop offset="1" stop-color="#22D3EE"/>
    </linearGradient>
    <linearGradient id="icon-upper" x1="160" y1="108.8" x2="361.6" y2="284.8" gradientUnits="userSpaceOnUse">
      <stop offset="0" stop-color="#F8FAFC"/>
      <stop offset="0.58" stop-color="#D1DBE6"/>
      <stop offset="1" stop-color="#8A98AB"/>
    </linearGradient>
    <linearGradient id="icon-lower" x1="163.2" y1="393.6" x2="368" y2="233.6" gradientUnits="userSpaceOnUse">
      <stop offset="0" stop-color="#3B82F6"/>
      <stop offset="0.55" stop-color="#38BDF8"/>
      <stop offset="1" stop-color="#22D3EE"/>
    </linearGradient>
    <clipPath id="icon-upper-clip">
      <rect x="121.6" y="108.8" width="268.8" height="153.6" rx="6.4"/>
    </clipPath>
    <clipPath id="icon-lower-clip">
      <rect x="121.6" y="249.6" width="268.8" height="153.6" rx="6.4"/>
    </clipPath>
  </defs>
  <rect width="512" height="512" rx="112" fill="url(#icon-bg)"/>
  <circle cx="256" cy="256" r="160" fill="none" stroke="url(#icon-ring)" stroke-width="8.64" opacity="0.72"/>
  <path d="M256 61.44l13.12 18.88L256 98.56l-13.12-18.24L256 61.44Z" fill="#67E8F9" opacity="0.82"/>
  <path d="M450.56 256l-18.88 13.12L413.44 256l18.24-13.12L450.56 256Z" fill="#67E8F9" opacity="0.78"/>
  <path d="M256 450.56l-13.12-18.88L256 413.44l13.12 18.24L256 450.56Z" fill="#67E8F9" opacity="0.74"/>
  <path d="M61.44 256l18.88-13.12L98.56 256l-18.24 13.12L61.44 256Z" fill="#67E8F9" opacity="0.78"/>
  <path d="M342.4 144H217.6L185.6 176H294.4L329.6 211.2H233.6L188.8 256H284.8L329.6 300.8H224L195.2 332.8H342.4" fill="none" stroke="url(#icon-upper)" stroke-width="48" stroke-linecap="butt" stroke-linejoin="bevel" clip-path="url(#icon-upper-clip)"/>
  <path d="M342.4 144H217.6L185.6 176H294.4L329.6 211.2H233.6L188.8 256H284.8L329.6 300.8H224L195.2 332.8H342.4" fill="none" stroke="url(#icon-lower)" stroke-width="48" stroke-linecap="butt" stroke-linejoin="bevel" clip-path="url(#icon-lower-clip)"/>
</svg>
