<svg xmlns="http://www.w3.org/2000/svg" viewBox="0 0 160 160" role="img" aria-labelledby="logo-title">
  <title id="logo-title">SAUGOPS</title>
  <defs>
    <linearGradient id="ring-gradient" x1="31" y1="29" x2="129" y2="131" gradientUnits="userSpaceOnUse">
      <stop offset="0" stop-color="#38BDF8"/>
      <stop offset="1" stop-color="#22D3EE"/>
    </linearGradient>
    <linearGradient id="upper-ribbon-gradient" x1="50" y1="34" x2="113" y2="89" gradientUnits="userSpaceOnUse">
      <stop offset="0" stop-color="#F8FAFC"/>
      <stop offset="0.58" stop-color="#D1DBE6"/>
      <stop offset="1" stop-color="#8A98AB"/>
    </linearGradient>
    <linearGradient id="lower-ribbon-gradient" x1="52" y1="124" x2="116" y2="74" gradientUnits="userSpaceOnUse">
      <stop offset="0" stop-color="#3B82F6"/>
      <stop offset="0.55" stop-color="#38BDF8"/>
      <stop offset="1" stop-color="#22D3EE"/>
    </linearGradient>
    <clipPath id="upper-half">
      <rect x="0" y="0" width="160" height="84"/>
    </clipPath>
    <clipPath id="lower-half">
      <rect x="0" y="76" width="160" height="84"/>
    </clipPath>
  </defs>
  <circle cx="80" cy="80" r="50" fill="none" stroke="url(#ring-gradient)" stroke-width="2.7" opacity="0.72"/>
  <path d="M80 19.2l4.1 5.9L80 30.8l-4.1-5.7L80 19.2Z" fill="#67E8F9" opacity="0.82"/>
  <path d="M140.8 80l-5.9 4.1-5.7-4.1 5.7-4.1 5.9 4.1Z" fill="#67E8F9" opacity="0.78"/>
  <path d="M80 140.8l-4.1-5.9 4.1-5.7 4.1 5.7-4.1 5.9Z" fill="#67E8F9" opacity="0.74"/>
  <path d="M19.2 80l5.9-4.1 5.7 4.1-5.7 4.1-5.9-4.1Z" fill="#67E8F9" opacity="0.78"/>
  <path
    id="upper-ribbon"
    d="M108 44C99 36 84 32 70 34C55 36 45 46 46 58C48 70 62 76 79 80C96 84 111 90 114 102C116 116 106 126 91 128C76 130 60 125 50 114"
    fill="none"
    stroke="url(#upper-ribbon-gradient)"
    stroke-width="20"
    stroke-linecap="round"
    stroke-linejoin="round"
    clip-path="url(#upper-half)"
  />
  <path
    id="lower-ribbon"
    d="M108 44C99 36 84 32 70 34C55 36 45 46 46 58C48 70 62 76 79 80C96 84 111 90 114 102C116 116 106 126 91 128C76 130 60 125 50 114"
    fill="none"
    stroke="url(#lower-ribbon-gradient)"
    stroke-width="20"
    stroke-linecap="round"
    stroke-linejoin="round"
    clip-path="url(#lower-half)"
  />
</svg>
