<svg xmlns="http://www.w3.org/2000/svg" viewBox="0 0 160 160" role="img" aria-labelledby="logo-title">
  <title id="logo-title">SAUGOPS</title>
  <defs>
    <linearGradient id="ring-gradient" x1="28" y1="28" x2="132" y2="132" gradientUnits="userSpaceOnUse">
      <stop offset="0" stop-color="#3B82F6"/>
      <stop offset="1" stop-color="#22D3EE"/>
    </linearGradient>
    <linearGradient id="upper-ribbon" x1="38" y1="38" x2="112" y2="96" gradientUnits="userSpaceOnUse">
      <stop offset="0" stop-color="#FFFFFF"/>
      <stop offset="1" stop-color="#9AA7B8"/>
    </linearGradient>
    <linearGradient id="lower-ribbon" x1="48" y1="118" x2="122" y2="62" gradientUnits="userSpaceOnUse">
      <stop offset="0" stop-color="#3B82F6"/>
      <stop offset="1" stop-color="#22D3EE"/>
    </linearGradient>
  </defs>
  <circle cx="80" cy="80" r="54" fill="none" stroke="url(#ring-gradient)" stroke-width="4"/>
  <path d="M80 15v9" fill="none" stroke="#22D3EE" stroke-width="4" stroke-linecap="round"/>
  <path d="M80 136v9" fill="none" stroke="#22D3EE" stroke-width="4" stroke-linecap="round"/>
  <path d="M15 80h9" fill="none" stroke="#22D3EE" stroke-width="4" stroke-linecap="round"/>
  <path d="M136 80h9" fill="none" stroke="#22D3EE" stroke-width="4" stroke-linecap="round"/>
  <path id="globe" d="M116 34H58L38 54h48c15.6 0 27 9 27 21 0 9.8-6.6 17.7-18.9 21.4l-14.8 4.4 8.9-17.4 1.7-.5c9.3-2.6 14.1-7 14.1-12.8 0-6.7-6.1-10.8-16.2-10.8H48.6L69.2 34H116Z" fill="url(#upper-ribbon)"/>
  <path id="globe_cage" d="M44 126h58l20-20H74c-15.6 0-27-9-27-21 0-9.8 6.6-17.7 18.9-21.4l14.8-4.4-8.9 17.4-1.7.5C60.8 79.3 56 83.7 56 89.5c0 6.7 6.1 10.8 16.2 10.8h40.1L90.8 126H44Z" fill="url(#lower-ribbon)"/>
</svg>
